{"title":"Rabba Mein Toh (Mausam) - Full Song - H.264 - 720p DVDRip ~~~Abh","uid":6936342,"size":66571873,"categoryP":"video","categoryS":"music_videos","magnet":"?xt=urn:btih:2c13a38ceea2f5f32bc19bf99acfb8a5fc9c1e3c&amp;dn=Rabba+Mein+Toh+%28Mausam%29+-+Full+Song+-+H.264+-+720p+DVDRip+%7E%7E%7EAbh&amp;tr=udp%3A%2F%2Ftracker.openbittorrent.com%3A80&amp;tr=udp%3A%2F%2Fopen.demonii.com%3A1337&amp;tr=udp%3A%2F%2Ftracker.coppersurfer.tk%3A6969&amp;tr=udp%3A%2F%2Fexodus.desync.com%3A6969","seeders":2,"leechers":0,"uploader":"AbhiHKRG","files":6,"time":1325839725,"description":"COVER ::\n\n\nSCREEN :: &lt;a href=&quot;\nhttp://i.minus.com/iwJpnT2m5A1w6.png&quot; rel=&quot;nofollow&quot; target=&quot;_NEW&quot;&gt;\nhttp://i.minus.com/iwJpnT2m5A1w6.png&lt;/a&gt;\n &lt;a href=&quot;\nhttp://i.minus.com/ibi47Pv6OIpyI8.png&quot; rel=&quot;nofollow&quot; target=&quot;_NEW&quot;&gt;\nhttp://i.minus.com/ibi47Pv6OIpyI8.png&lt;/a&gt;\n &lt;a href=&quot;\nhttp://i.minus.com/iuDa5bzA7jnbQ.png&quot; rel=&quot;nofollow&quot; target=&quot;_NEW&quot;&gt;\nhttp://i.minus.com/iuDa5bzA7jnbQ.png&lt;/a&gt;\n &lt;a href=&quot;\nhttp://i.minus.com/ibtlIjjJ1WzLdo.png&quot; rel=&quot;nofollow&quot; target=&quot;_NEW&quot;&gt;\nhttp://i.minus.com/ibtlIjjJ1WzLdo.png&lt;/a&gt;\n &lt;a href=&quot;\nhttp://i.minus.com/icCM4RyYkMWXS.png&quot; rel=&quot;nofollow&quot; target=&quot;_NEW&quot;&gt;\nhttp://i.minus.com/icCM4RyYkMWXS.png&lt;/a&gt;\n &lt;a href=&quot;\nhttp://i.minus.com/ibLuwmwzBC4g9.png&quot; rel=&quot;nofollow&quot; target=&quot;_NEW&quot;&gt;\nhttp://i.minus.com/ibLuwmwzBC4g9.png&lt;/a&gt;\n &lt;a href=&quot;\nhttp://i.minus.com/inHYuB2dCKrfI.png&quot; rel=&quot;nofollow&quot; target=&quot;_NEW&quot;&gt;\nhttp://i.minus.com/inHYuB2dCKrfI.png&lt;/a&gt;\n &lt;a href=&quot;\nhttp://i.minus.com/ivhQXmdnfMaMF.png&quot; rel=&quot;nofollow&quot; target=&quot;_NEW&quot;&gt;\nhttp://i.minus.com/ivhQXmdnfMaMF.png&lt;/a&gt;\n &lt;a href=&quot;\nhttp://i.minus.com/ibuWE0vSlU6rGF.png&quot; rel=&quot;nofollow&quot; target=&quot;_NEW&quot;&gt;\nhttp://i.minus.com/ibuWE0vSlU6rGF.png&lt;/a&gt;\n\n\nGeneral ::\nFormat                           : AVI\nFormat/Info                      : Audio Video Interleave\nFile size                        : 63.5 MiB\nDuration                         : 3mn 58s\nOverall bit rate                 : 2 231 Kbps\n\n\nVideo Info ::\nFormat                           : AVC\nFormat/Info                      : Advanced Video Codec\nFormat profile                   : &lt;a class=&quot;__cf_email__&quot; href=&quot;/cdn-cgi/l/email-protection&quot; data-cfemail=&quot;652d0c020d2529504b54&quot;&gt;[email&amp;#160;protected]&lt;/a&gt;&lt;script cf-hash='f9e31' type=&quot;text/javascript&quot;&gt;\n/* &lt;![CDATA[ */!function(){try{var t=&quot;currentScript&quot;in document?document.currentScript:function(){for(var t=document.getElementsByTagName(&quot;script&quot;),e=t.length;e--;)if(t[e].getAttribute(&quot;cf-hash&quot;))return t[e]}();if(t&amp;&amp;t.previousSibling){var e,r,n,i,c=t.previousSibling,a=c.getAttribute(&quot;data-cfemail&quot;);if(a){for(e=&quot;&quot;,r=parseInt(a.substr(0,2),16),n=2;a.length-n;n+=2)i=parseInt(a.substr(n,2),16)^r,e+=String.fromCharCode(i);e=document.createTextNode(e),c.parentNode.replaceChild(e,c)}}}catch(u){}}();/* ]]&gt; */&lt;/script&gt;\nFormat settings, CABAC           : Yes\nFormat settings, ReFrames        : 2 frames\nCodec ID                         : H264\nDuration                         : 10s 0ms\nBit rate                         : 2 028 Kbps\nWidth                            : 1 280 pixels\nHeight                           : 544 pixels\nDisplay aspect ratio             : 2.35:1\nFrame rate                       : 30.000 fps\nColor space                      : YUV\nChroma subsampling               : 4:2:0\nBit depth                        : 8 bits\nScan type                        : Progressive\nBits/(Pixel*Frame)               : 0.097\nStream size                      : 57.7 MiB (91%)\n\n\nAudio Info ::\nID                               : 1\nFormat                           : MPEG Audio\nFormat version                   : Version 1\nFormat profile                   : Layer 3\nCodec ID                         : 55\nCodec ID/Hint                    : MP3\nDuration                         : 3mn 58s\nBit rate mode                    : Constant\nBit rate                         : 192 Kbps\nChannel(s)                       : 2 channels\nSampling rate                    : 44.1 KHz\nCompression mode                 : Lossy\nStream size                      : 5.46 MiB (9%)","torrent":{"xt":"urn:btih:2c13a38ceea2f5f32bc19bf99acfb8a5fc9c1e3c","amp;dn":"Rabba+Mein+Toh+%28Mausam%29+-+Full+Song+-+H.264+-+720p+DVDRip+%7E%7E%7EAbh","amp;tr":["udp%3A%2F%2Ftracker.openbittorrent.com%3A80","udp%3A%2F%2Fopen.demonii.com%3A1337","udp%3A%2F%2Ftracker.coppersurfer.tk%3A6969","udp%3A%2F%2Fexodus.desync.com%3A6969"],"infoHash":"2c13a38ceea2f5f32bc19bf99acfb8a5fc9c1e3c","infoHashBuffer":{"type":"Buffer","data":[44,19,163,140,238,162,245,243,43,193,155,249,154,207,184,165,252,156,30,60]},"announce":[],"urlList":[]}}